<svg width="57" height="57" viewBox="0 0 57 57" fill="none" xmlns="http://www.w3.org/2000/svg">
<path d="M11.076 0.817383C5.39317 0.817383 0.817383 5.39317 0.817383 11.076V46.7414C0.817383 52.4242 5.39317 57 11.076 57H30.4063V35.0361H24.5985V27.1284H30.4063V20.3725C30.4063 15.0646 33.8379 10.1911 41.7429 10.1911C44.9435 10.1911 47.3103 10.4984 47.3103 10.4984L47.1241 17.8829C47.1241 17.8829 44.7104 17.8601 42.0765 17.8601C39.2258 17.8601 38.7687 19.1735 38.7687 21.354V27.1285H47.3506L46.9766 35.0362H38.7687V57.0001H46.7414C52.4242 57.0001 57 52.4243 57 46.7415V11.076C57 5.39323 52.4242 0.817439 46.7414 0.817439H11.0759L11.076 0.817383Z" fill="url(#paint0_linear_213_524)"/>
<defs>
<linearGradient id="paint0_linear_213_524" x1="28.8521" y1="54.6575" x2="28.8521" y2="3.93193" gradientUnits="userSpaceOnUse">
<stop stop-color="#ED3C29"/>
<stop offset="1" stop-color="#FA610A"/>
</linearGradient>
</defs>
</svg>
