<svg width="62" height="62" viewBox="0 0 62 62" fill="none" xmlns="http://www.w3.org/2000/svg">
<path d="M61.6382 18.282C61.6005 15.6826 61.1197 13.1037 60.1994 10.6725C58.5889 6.52095 55.3096 3.23815 51.158 1.6311C48.7577 0.727984 46.2201 0.243806 43.6515 0.188864C40.3481 0.0412068 39.3008 0 30.9153 0C22.5297 0 21.4549 2.3026e-07 18.1756 0.188864C15.6104 0.243806 13.0728 0.727984 10.6725 1.6311C6.52095 3.23815 3.23815 6.52095 1.63109 10.6725C0.727983 13.0728 0.240372 15.6104 0.192298 18.1756C0.0446405 21.4824 0 22.5297 0 30.9153C0 39.3008 -2.55844e-08 40.3722 0.192298 43.655C0.243806 46.2235 0.727983 48.7577 1.63109 51.1649C3.24159 55.313 6.52095 58.5958 10.6759 60.2029C13.0659 61.1369 15.6036 61.6657 18.179 61.7481C21.4858 61.8958 22.5332 61.9404 30.9187 61.9404C39.3042 61.9404 40.379 61.9404 43.6584 61.7481C46.2235 61.6966 48.7612 61.2124 51.1649 60.3093C55.3164 58.6988 58.5958 55.416 60.2063 51.2679C61.1094 48.8642 61.5936 46.33 61.6451 43.758C61.7927 40.4546 61.8374 39.4073 61.8374 31.0183C61.8305 22.6327 61.8305 21.5682 61.6382 18.282ZM30.8947 46.7729C22.1245 46.7729 15.0198 39.6682 15.0198 30.8981C15.0198 22.128 22.1245 15.0232 30.8947 15.0232C39.6579 15.0232 46.7695 22.128 46.7695 30.8981C46.7695 39.6682 39.6579 46.7729 30.8947 46.7729ZM47.4013 18.1378C45.3513 18.1378 43.6996 16.4826 43.6996 14.436C43.6996 12.3895 45.3513 10.7343 47.4013 10.7343C49.4445 10.7343 51.0996 12.3895 51.0996 14.436C51.0996 16.4826 49.4445 18.1378 47.4013 18.1378Z" fill="url(#paint0_linear_213_521)"/>
<path d="M30.8943 41.2103C36.5894 41.2103 41.2062 36.5935 41.2062 30.8984C41.2062 25.2032 36.5894 20.5864 30.8943 20.5864C25.1992 20.5864 20.5823 25.2032 20.5823 30.8984C20.5823 36.5935 25.1992 41.2103 30.8943 41.2103Z" fill="url(#paint1_linear_213_521)"/>
<defs>
<linearGradient id="paint0_linear_213_521" x1="30.8565" y1="59.3578" x2="30.8565" y2="3.43373" gradientUnits="userSpaceOnUse">
<stop stop-color="#ED3C29"/>
<stop offset="1" stop-color="#FA610A"/>
</linearGradient>
<linearGradient id="paint1_linear_213_521" x1="30.8735" y1="40.3504" x2="30.8735" y2="21.7297" gradientUnits="userSpaceOnUse">
<stop stop-color="#ED3C29"/>
<stop offset="1" stop-color="#FA610A"/>
</linearGradient>
</defs>
</svg>
