<svg width="342" height="825" viewBox="0 0 342 825" fill="none" xmlns="http://www.w3.org/2000/svg">
<g style="mix-blend-mode:screen">
<path d="M282.507 792.234L159.142 709.627C153.598 705.915 150.27 699.683 150.27 693.011L150.252 530.757C150.252 529.25 150.081 527.748 149.744 526.28L130.41 442.141C128.292 432.922 132.922 423.479 141.508 419.509L175.74 403.68C192.753 395.813 190.569 370.966 172.444 366.188L66.5417 338.269C56.5877 335.645 50.2514 325.894 51.8972 315.732L63.8995 241.627C66.3468 226.518 51.6059 214.371 37.2427 219.663L-74.2895 260.753C-80.6928 263.112 -87.857 262.044 -93.2932 257.919L-176.883 194.49C-183.942 189.133 -186.635 179.77 -183.499 171.482L-148.742 79.5954" stroke="url(#paint0_linear_193_297)" stroke-width="0.75" stroke-miterlimit="10"/>
</g>
<g style="mix-blend-mode:screen">
<path d="M15.822 722.746L285.355 785.693" stroke="url(#paint1_linear_193_297)" stroke-width="0.75" stroke-miterlimit="10"/>
</g>
<g style="mix-blend-mode:screen">
<path d="M150.271 703.686L212.069 632.901C218.409 625.64 218.667 614.889 212.683 607.332L166.083 548.482C158.027 538.31 142.568 538.382 134.608 548.63L93.6326 601.383C88.1665 608.421 88.0154 618.226 93.2622 625.428L150.271 703.686ZM150.271 703.686L52.967 717.48C37.1221 719.726 30.2014 738.747 40.8981 750.65L82.0938 796.492" stroke="url(#paint2_linear_193_297)" stroke-width="0.75" stroke-miterlimit="10"/>
</g>
<g style="mix-blend-mode:screen">
<path d="M256.241 713.023L262.413 656.905C263.281 649.015 259.4 641.358 252.524 637.393L243.765 632.342C232.957 626.109 230.431 611.609 238.496 602.089L281.759 551.018C293.322 537.369 282.52 516.566 264.703 518.172L150.252 528.489L56.8814 532.355C40.1051 533.05 31.6002 552.859 42.6505 565.5L61.594 587.172C71.7289 598.767 65.5075 616.985 50.3977 619.958L-77.1477 645.059C-90.8967 647.765 -103.094 635.858 -100.721 622.048L-82.0002 513.101C-79.4378 498.189 -93.7225 485.942 -108.069 490.751L-245.106 536.694C-248.081 537.691 -251.249 537.975 -254.355 537.521L-323.751 527.38C-331.794 526.205 -338.326 520.279 -340.275 512.388L-355.31 451.54C-357.897 441.069 -368.323 434.535 -378.875 436.773L-438.691 449.458" stroke="url(#paint3_linear_193_297)" stroke-width="0.75" stroke-miterlimit="10"/>
</g>
<g style="mix-blend-mode:screen">
<path d="M-359.95 432.76L-270.396 518.363C-260.329 527.986 -243.754 524.631 -238.222 511.85L-186.695 392.801C-184.261 387.177 -184.54 380.747 -187.452 375.354L-217.792 319.166C-225.7 304.523 -213.306 287.191 -196.892 289.938L-105.481 305.238C-95.7765 306.863 -86.7976 299.737 -86.1754 289.917V289.917C-85.4178 277.959 -72.6255 270.718 -61.983 276.225L-7.65067 304.336C9.33391 313.123 4.61575 338.601 -14.3893 340.724V340.724" stroke="url(#paint4_linear_193_297)" stroke-width="0.75" stroke-miterlimit="10"/>
</g>
<g style="mix-blend-mode:screen">
<path d="M23.2544 657.794C36.2565 648.326 52.7849 663.74 44.2464 677.37V677.37C36.3459 689.982 16.8508 684.099 17.2469 669.222V669.222C17.3676 664.687 19.5871 660.465 23.2544 657.794V657.794Z" stroke="url(#paint5_linear_193_297)" stroke-width="0.75" stroke-miterlimit="10"/>
</g>
<g style="mix-blend-mode:screen">
<path d="M277.022 201.156L341.024 142.748" stroke="url(#paint6_linear_193_297)" stroke-width="0.75" stroke-miterlimit="10"/>
</g>
<g style="mix-blend-mode:screen">
<path d="M69.3742 207.825L42.5307 127.537" stroke="url(#paint7_linear_193_297)" stroke-width="0.75" stroke-miterlimit="10"/>
</g>
<g style="mix-blend-mode:screen">
<path d="M209.981 292.14L203.068 240.149C200.179 218.424 229.3 208.542 240.229 227.539L271.094 281.184C280.917 298.257 262.745 317.751 245.025 309.15L209.981 292.14ZM209.981 292.14L221.159 352.999C223.628 366.444 238.557 373.505 250.516 366.884L290.801 344.584C298.384 340.386 302.4 331.781 300.747 323.272L278.559 209.065C277.573 203.99 274.661 199.495 270.433 196.521L207.172 152.024C197.721 145.376 195.854 132.125 203.099 123.124L258.033 54.8816C270.668 39.185 295.961 49.9135 293.457 69.9077L277.023 201.156" stroke="url(#paint8_linear_193_297)" stroke-width="0.75" stroke-miterlimit="10"/>
</g>
<g style="mix-blend-mode:screen">
<path d="M126.775 426.321L102.295 485.712C100.437 490.219 96.9978 493.892 92.6226 496.042L50.2185 516.872C35.5891 524.059 18.9677 511.667 21.6788 495.595L41.7936 376.345C44.6307 359.525 65.8694 353.749 76.8348 366.815L126.775 426.321ZM126.775 426.321L21.9697 527.531C17.6746 531.679 11.7508 533.691 5.81806 533.017L-12.4781 530.937C-25.9948 529.401 -34.0671 515.111 -28.4052 502.741L48.9964 333.644" stroke="url(#paint9_linear_193_297)" stroke-width="0.75" stroke-miterlimit="10"/>
</g>
<g style="mix-blend-mode:screen">
<path d="M99.4124 492.706L150.252 528.49" stroke="url(#paint10_linear_193_297)" stroke-width="0.75" stroke-miterlimit="10"/>
</g>
<g style="mix-blend-mode:screen">
<path d="M227.857 473.827L261.058 445.027C269.864 437.388 270.297 423.867 261.997 415.681L261.103 414.799C248.342 402.211 226.74 411.474 227.061 429.396L227.857 473.827ZM227.857 473.827L216.567 481.78C199.488 493.809 177.723 474.896 187.252 456.306L219.865 392.68C223.666 385.265 222.472 376.271 216.868 370.105L71.9052 210.61C70.2325 208.77 68.2312 207.257 66.0039 206.151L-57.0433 145.015C-61.9052 142.599 -67.5401 142.264 -72.6541 144.086L-181.169 182.744C-186.055 184.484 -190.074 188.055 -192.377 192.703L-229.345 267.298C-233.839 276.366 -244.398 280.648 -253.938 277.271L-302.227 260.179C-313.051 256.348 -324.871 262.396 -328.096 273.416L-331.367 284.593C-336.005 300.442 -320.524 314.765 -305.083 308.912L-237.22 283.188" stroke="url(#paint11_linear_193_297)" stroke-width="0.75" stroke-miterlimit="10"/>
</g>
<g style="mix-blend-mode:screen">
<path d="M300.383 381.15L277.388 430.862L249.89 489.68" stroke="url(#paint12_linear_193_297)" stroke-width="0.75" stroke-miterlimit="10"/>
</g>
<g style="mix-blend-mode:screen">
<path d="M189.718 139.747L158.141 249.149" stroke="url(#paint13_linear_193_297)" stroke-width="0.75" stroke-miterlimit="10"/>
</g>
<g style="mix-blend-mode:screen">
<path d="M17.4383 662.029L-105.638 650.666" stroke="url(#paint14_linear_193_297)" stroke-width="0.75" stroke-miterlimit="10"/>
</g>
<defs>
<linearGradient id="paint0_linear_193_297" x1="46.386" y1="109.309" x2="46.3861" y2="752.729" gradientUnits="userSpaceOnUse">
<stop stop-color="#ED3C29"/>
<stop offset="1" stop-color="#FA610A"/>
</linearGradient>
<linearGradient id="paint1_linear_193_297" x1="150.317" y1="725.37" x2="150.317" y2="782.204" gradientUnits="userSpaceOnUse">
<stop stop-color="#ED3C29"/>
<stop offset="1" stop-color="#FA610A"/>
</linearGradient>
<linearGradient id="paint2_linear_193_297" x1="119.207" y1="539.664" x2="119.207" y2="781.635" gradientUnits="userSpaceOnUse">
<stop stop-color="#ED3C29"/>
<stop offset="1" stop-color="#FA610A"/>
</linearGradient>
<linearGradient id="paint3_linear_193_297" x1="-63.4547" y1="444.445" x2="-63.4547" y2="697.487" gradientUnits="userSpaceOnUse">
<stop stop-color="#ED3C29"/>
<stop offset="1" stop-color="#FA610A"/>
</linearGradient>
<linearGradient id="paint4_linear_193_297" x1="-155.888" y1="275.951" x2="-155.888" y2="523.04" gradientUnits="userSpaceOnUse">
<stop stop-color="#ED3C29"/>
<stop offset="1" stop-color="#FA610A"/>
</linearGradient>
<linearGradient id="paint5_linear_193_297" x1="50.0435" y1="617.831" x2="50.0435" y2="716.677" gradientUnits="userSpaceOnUse">
<stop stop-color="#ED3C29"/>
<stop offset="1" stop-color="#FA610A"/>
</linearGradient>
<linearGradient id="paint6_linear_193_297" x1="308.959" y1="145.184" x2="308.959" y2="197.918" gradientUnits="userSpaceOnUse">
<stop stop-color="#ED3C29"/>
<stop offset="1" stop-color="#FA610A"/>
</linearGradient>
<linearGradient id="paint7_linear_193_297" x1="55.9254" y1="130.885" x2="55.9254" y2="203.374" gradientUnits="userSpaceOnUse">
<stop stop-color="#ED3C29"/>
<stop offset="1" stop-color="#FA610A"/>
</linearGradient>
<linearGradient id="paint8_linear_193_297" x1="246.504" y1="15.8588" x2="246.504" y2="359.269" gradientUnits="userSpaceOnUse">
<stop stop-color="#ED3C29"/>
<stop offset="1" stop-color="#FA610A"/>
</linearGradient>
<linearGradient id="paint9_linear_193_297" x1="43.2771" y1="342.001" x2="43.2771" y2="522.97" gradientUnits="userSpaceOnUse">
<stop stop-color="#ED3C29"/>
<stop offset="1" stop-color="#FA610A"/>
</linearGradient>
<linearGradient id="paint10_linear_193_297" x1="124.781" y1="494.198" x2="124.781" y2="526.506" gradientUnits="userSpaceOnUse">
<stop stop-color="#ED3C29"/>
<stop offset="1" stop-color="#FA610A"/>
</linearGradient>
<linearGradient id="paint11_linear_193_297" x1="-33.2554" y1="157.382" x2="-33.2554" y2="507.022" gradientUnits="userSpaceOnUse">
<stop stop-color="#ED3C29"/>
<stop offset="1" stop-color="#FA610A"/>
</linearGradient>
<linearGradient id="paint12_linear_193_297" x1="275.086" y1="385.675" x2="275.086" y2="483.663" gradientUnits="userSpaceOnUse">
<stop stop-color="#ED3C29"/>
<stop offset="1" stop-color="#FA610A"/>
</linearGradient>
<linearGradient id="paint13_linear_193_297" x1="173.898" y1="144.308" x2="173.898" y2="243.084" gradientUnits="userSpaceOnUse">
<stop stop-color="#ED3C29"/>
<stop offset="1" stop-color="#FA610A"/>
</linearGradient>
<linearGradient id="paint14_linear_193_297" x1="-44.2237" y1="651.14" x2="-44.2237" y2="661.399" gradientUnits="userSpaceOnUse">
<stop stop-color="#ED3C29"/>
<stop offset="1" stop-color="#FA610A"/>
</linearGradient>
</defs>
</svg>
