<svg width="57" height="57" viewBox="0 0 57 57" fill="none" xmlns="http://www.w3.org/2000/svg">
<path d="M12.7456 56.9397H0.940542V18.924H12.7456V56.9397ZM6.83673 13.7383C3.06185 13.7383 0 10.6116 0 6.83672C2.7019e-08 5.02351 0.720296 3.28456 2.00243 2.00243C3.28457 0.720296 5.02351 0 6.83673 0C8.64994 0 10.3889 0.720296 11.671 2.00243C12.9532 3.28456 13.6735 5.02351 13.6735 6.83672C13.6735 10.6116 10.6103 13.7383 6.83673 13.7383ZM56.9282 56.9397H45.1486V38.4339C45.1486 34.0235 45.0596 28.3675 39.0109 28.3675C32.8732 28.3675 31.9327 33.1592 31.9327 38.1161V56.9397H20.1403V18.924H31.4624V24.1097H31.6276C33.2037 21.1228 37.0536 17.9707 42.7972 17.9707C54.7446 17.9707 56.9409 25.8382 56.9409 36.0571V56.9397H56.9282Z" fill="white"/>
</svg>
