<svg width="318" height="127" viewBox="0 0 318 127" fill="none" xmlns="http://www.w3.org/2000/svg">
<path fill-rule="evenodd" clip-rule="evenodd" d="M72.8165 100.178L93.9473 118.824C99.0495 114.268 110.397 104.501 115.733 99.9082C112.804 100.774 109.705 101.239 106.498 101.239C101.99 101.239 97.6943 100.323 93.788 98.6665C89.8848 100.323 85.5943 101.239 81.0917 101.239C78.2327 101.239 75.4594 100.87 72.8165 100.178Z" fill="url(#paint0_linear_213_563)"/>
<path fill-rule="evenodd" clip-rule="evenodd" d="M191.527 42.2257H208.273V92.6655H191.527V88.0247C188.097 92.0602 183.322 94.0781 177.202 94.0781C170.477 94.0781 164.845 91.5388 160.305 86.4616C155.765 81.3836 153.495 75.045 153.495 67.4456C153.495 59.8457 155.765 53.5071 160.305 48.4297C164.845 43.3519 170.477 40.813 177.202 40.813C183.322 40.813 188.097 42.8309 191.527 46.866V42.2257ZM173.268 75.415C175.218 77.4328 177.774 78.4412 180.935 78.4412C184.096 78.4412 186.651 77.4328 188.602 75.415C190.552 73.3973 191.527 70.7408 191.527 67.4456C191.527 64.1499 190.552 61.4934 188.602 59.4761C186.651 57.4583 184.096 56.4494 180.935 56.4494C177.774 56.4494 175.218 57.4583 173.268 59.4761C171.317 61.4934 170.342 64.1499 170.342 67.4456C170.342 70.7408 171.317 73.3973 173.268 75.415Z" fill="white"/>
<path fill-rule="evenodd" clip-rule="evenodd" d="M213.378 92.6654V19.0229H230.124V92.6654H213.378Z" fill="white"/>
<path fill-rule="evenodd" clip-rule="evenodd" d="M134.167 92.6654V85.8602C137.286 80.8644 139.088 74.9653 139.088 68.6494C139.088 62.3262 137.286 56.4215 134.167 51.4231V42.2256H150.913V92.6654H134.167Z" fill="white"/>
<path d="M106.286 39.2524C114.401 39.2524 121.753 42.5451 127.072 47.8635C131.806 52.5978 134.934 58.9421 135.565 66.0022H127.11C126.514 61.2633 124.338 57.016 121.129 53.8069C117.332 50.0107 112.083 47.6596 106.286 47.6596L106.023 47.6615C105.423 46.9497 104.793 46.2644 104.136 45.6065H104.118C102.175 43.6633 99.987 41.964 97.6057 40.5589C100.35 39.7098 103.265 39.2524 106.286 39.2524ZM135.565 71.298C134.933 78.3486 131.805 84.6863 127.072 89.4209V89.4363C121.753 94.7554 114.401 98.0474 106.286 98.0474C103.265 98.0474 100.35 97.5902 97.6057 96.7411C99.987 95.336 102.175 93.6367 104.118 91.6935L104.136 91.6762C104.788 91.024 105.413 90.3436 106.008 89.6385L106.286 89.6402C112.083 89.6402 117.332 87.2891 121.129 83.4929C124.342 80.289 126.515 76.0413 127.11 71.298H135.565ZM83.0815 86.683C79.2015 81.7019 76.8882 75.4434 76.8882 68.6495C76.8882 61.8542 79.1968 55.5951 83.0705 50.6155C86.177 50.9511 89.0472 52.0689 91.4789 53.7682L91.4426 53.8069C87.6465 57.6031 85.2953 62.8527 85.2953 68.6495C85.2953 74.4532 87.6417 79.7028 91.4351 83.5005L91.4728 83.5382C89.0444 85.2315 86.1818 86.3465 83.0815 86.683Z" fill="url(#paint1_linear_213_563)"/>
<path d="M81.093 34.2112C86.2823 34.2112 90.4891 30.0044 90.4891 24.8151C90.4891 19.6257 86.2823 15.4189 81.093 15.4189C75.9037 15.4189 71.6969 19.6257 71.6969 24.8151C71.6969 30.0044 75.9037 34.2112 81.093 34.2112Z" fill="url(#paint2_linear_213_563)"/>
<path d="M106.286 34.2112C111.476 34.2112 115.682 30.0044 115.682 24.8151C115.682 19.6257 111.476 15.4189 106.286 15.4189C101.097 15.4189 96.8901 19.6257 96.8901 24.8151C96.8901 30.0044 101.097 34.2112 106.286 34.2112Z" fill="url(#paint3_linear_213_563)"/>
<path fill-rule="evenodd" clip-rule="evenodd" d="M28.8516 94.0567C21.3868 94.0567 15.1996 92.4766 10.2897 89.3154C5.38043 86.1547 1.95054 81.8841 0 76.5037L15.4346 67.5252C18.0577 73.78 22.6978 76.9073 29.3562 76.9073C34.8709 76.9073 37.6285 75.3433 37.6285 72.1994C37.6285 70.1314 36.031 68.4671 32.8533 67.2058C31.525 66.6508 28.5658 65.7096 24.0093 64.3981C17.5535 62.5149 12.442 59.875 8.67564 56.4788C4.90969 53.0826 3.02649 48.3581 3.02649 42.3053C3.02649 35.7818 5.36359 30.5024 10.0374 26.4668C14.7116 22.4319 20.5461 20.4141 27.5402 20.4141C33.4589 20.4141 38.7044 21.7931 43.2776 24.5502C47.8508 27.3077 51.348 31.3092 53.7689 36.5551L38.6373 45.4324C36.418 40.1864 32.7527 37.564 27.6412 37.564C25.4888 37.564 23.858 38.0013 22.7485 38.8754C21.6387 39.7666 21.0838 40.876 21.0838 42.2211C21.0838 43.7849 21.9079 45.0963 23.5553 46.1891C25.2031 47.2653 28.3977 48.5262 33.1729 49.9386C36.5184 51.1491 39.2593 52.1413 41.3944 52.8978C43.5131 53.6709 45.8163 54.8647 48.3047 56.5125C48.9969 56.9677 49.639 57.4593 50.2311 57.9858C49.0746 61.3272 48.4444 64.9148 48.4444 68.6495C48.4444 74.1991 49.8331 79.4235 52.2796 83.9974C51.2116 85.5551 49.8922 86.9578 48.3213 88.206C43.4121 92.1064 36.9222 94.0567 28.8516 94.0567Z" fill="white"/>
<path fill-rule="evenodd" clip-rule="evenodd" d="M81.0917 39.2524C89.1977 39.2524 96.5432 42.5451 101.863 47.8635H101.879C106.613 52.5978 109.741 58.9421 110.372 66.0022H101.917C101.321 61.2633 99.1453 57.0155 95.939 53.8032C92.1457 50.0062 86.8954 47.6596 81.0917 47.6596C75.2951 47.6596 70.0455 50.0107 66.2491 53.8069C62.4529 57.6031 60.1025 62.8527 60.1025 68.6495C60.1025 74.3554 62.3711 79.5264 66.0514 83.3086L66.2491 83.4929C70.0455 87.2891 75.2951 89.6402 81.0917 89.6402C86.8954 89.6402 92.1457 87.2938 95.9427 83.5005C99.1498 80.2899 101.322 76.0417 101.917 71.298H110.371C109.74 78.3486 106.612 84.6863 101.879 89.4209L101.863 89.4363C96.5432 94.7554 89.1977 98.0474 81.0917 98.0474C72.9766 98.0474 65.6249 94.7554 60.3064 89.4363L60.0819 89.1932C54.8943 83.8924 51.6953 76.6409 51.6953 68.6495C51.6953 60.5337 54.9873 53.1827 60.3064 47.8635C65.6249 42.5451 72.9766 39.2524 81.0917 39.2524Z" fill="url(#paint4_linear_213_563)"/>
<path d="M105.426 65.9994C103.105 65.9994 101.222 64.1169 101.222 61.796C101.222 59.4748 103.105 57.5923 105.426 57.5923H128.652C130.973 57.5923 132.855 59.4748 132.855 61.796C132.855 64.1169 130.973 65.9994 128.652 65.9994H105.426Z" fill="url(#paint5_linear_213_563)"/>
<path d="M105.426 79.7076C103.105 79.7076 101.222 77.8251 101.222 75.504C101.222 73.1828 103.105 71.3003 105.426 71.3003H128.652C130.973 71.3003 132.855 73.1828 132.855 75.504C132.855 77.8251 130.973 79.7076 128.652 79.7076H105.426Z" fill="url(#paint6_linear_213_563)"/>
<path d="M279.039 71.9338C280.721 76.0363 284.487 78.0875 290.338 78.0875C293.969 78.0875 297.029 76.9105 299.518 74.5567L311.623 83.0305C306.647 89.2851 299.417 92.4123 289.934 92.4123C281.393 92.4123 274.533 89.924 269.355 84.9472C264.244 79.9033 261.688 73.5479 261.688 65.8811C261.688 58.2815 264.21 51.9261 269.254 46.8149C274.298 41.7037 280.721 39.1481 288.522 39.1481C296.054 39.1481 302.275 41.6701 307.185 46.714C312.094 51.758 314.549 58.0798 314.549 65.6793C314.549 67.8987 314.313 69.9835 313.843 71.9338H279.039ZM278.838 60.3327H298.206C296.861 55.625 293.7 53.2712 288.724 53.2712C283.545 53.2712 280.25 55.625 278.838 60.3327Z" fill="white"/>
<path d="M142.286 34.2112C147.475 34.2112 151.682 30.0044 151.682 24.8151C151.682 19.6257 147.475 15.4189 142.286 15.4189C137.097 15.4189 132.89 19.6257 132.89 24.8151C132.89 30.0044 137.097 34.2112 142.286 34.2112Z" fill="white"/>
<path fill-rule="evenodd" clip-rule="evenodd" d="M235.229 64.2173H256.267C255.746 69.2105 256.843 76.6602 259.307 80.9636H235.229V64.2173Z" fill="white"/>
<defs>
<linearGradient id="paint0_linear_213_563" x1="94.2317" y1="117.983" x2="94.2317" y2="99.7839" gradientUnits="userSpaceOnUse">
<stop stop-color="#ED3C29"/>
<stop offset="1" stop-color="#FA610A"/>
</linearGradient>
<linearGradient id="paint1_linear_213_563" x1="106.168" y1="95.5959" x2="106.168" y2="42.5118" gradientUnits="userSpaceOnUse">
<stop stop-color="#ED3C29"/>
<stop offset="1" stop-color="#FA610A"/>
</linearGradient>
<linearGradient id="paint2_linear_213_563" x1="81.0741" y1="33.4276" x2="81.0741" y2="16.4607" gradientUnits="userSpaceOnUse">
<stop stop-color="#ED3C29"/>
<stop offset="1" stop-color="#FA610A"/>
</linearGradient>
<linearGradient id="paint3_linear_213_563" x1="106.267" y1="33.4276" x2="106.267" y2="16.4607" gradientUnits="userSpaceOnUse">
<stop stop-color="#ED3C29"/>
<stop offset="1" stop-color="#FA610A"/>
</linearGradient>
<linearGradient id="paint4_linear_213_563" x1="80.9745" y1="95.5959" x2="80.9745" y2="42.5118" gradientUnits="userSpaceOnUse">
<stop stop-color="#ED3C29"/>
<stop offset="1" stop-color="#FA610A"/>
</linearGradient>
<linearGradient id="paint5_linear_213_563" x1="117.007" y1="65.6489" x2="117.007" y2="58.0583" gradientUnits="userSpaceOnUse">
<stop stop-color="#ED3C29"/>
<stop offset="1" stop-color="#FA610A"/>
</linearGradient>
<linearGradient id="paint6_linear_213_563" x1="117.007" y1="79.3571" x2="117.007" y2="71.7664" gradientUnits="userSpaceOnUse">
<stop stop-color="#ED3C29"/>
<stop offset="1" stop-color="#FA610A"/>
</linearGradient>
</defs>
</svg>
