<svg width="62" height="63" viewBox="0 0 62 63" fill="none" xmlns="http://www.w3.org/2000/svg">
<path d="M31.1836 48.882C20.7619 48.882 16.1095 43.7518 16.1095 39.9075C16.1095 37.9241 17.5567 36.5488 19.5594 36.5488C24.0214 36.5488 22.8578 42.9631 31.1836 42.9631C35.4338 42.9631 37.7804 40.6456 37.7804 38.2796C37.7804 36.8538 37.0928 35.2745 34.28 34.5771L25.0121 32.2597C17.5547 30.3774 16.2008 26.3408 16.2008 22.5373C16.2008 14.6448 23.6174 11.6921 30.5775 11.6921C36.9723 11.6921 44.5405 15.2431 44.5405 19.979C44.5405 22.0031 42.7592 23.1861 40.7758 23.1861C36.9723 23.1861 37.6794 17.9043 29.9909 17.9043C26.1874 17.9043 24.0622 19.6235 24.0622 22.0924C24.0622 24.5614 27.046 25.3501 29.647 25.9464L36.477 27.4636C43.9635 29.1536 45.8653 33.5437 45.8653 37.6813C45.8653 44.0956 40.939 48.882 31.0437 48.882H31.1836ZM59.7447 36.2341L59.6748 36.5877L59.5641 35.9602C59.5951 36.0826 59.6748 36.1525 59.7156 36.273C60.0186 34.5228 60.1818 32.7414 60.1818 30.9621C60.1818 26.9954 59.4028 23.1608 57.8546 19.5089C56.388 16.0181 54.2434 12.8712 51.5725 10.2002C48.851 7.51952 45.7546 5.39439 42.2638 3.91806C38.8449 2.27855 35.0104 1.50931 31.0534 1.50931C29.1808 1.50931 27.3101 1.6822 25.4997 2.03574L25.8027 2.18726L25.185 2.10567L25.4978 2.03574C22.9997 0.699272 20.1966 -0.0078125 17.3527 -0.0078125C12.7197 -0.0078125 8.36846 1.80263 5.08945 5.09135C1.81045 8.37036 0 12.7411 0 17.3837C0 20.348 0.759533 23.2521 2.18536 25.8221L2.23586 25.5094L2.34659 26.1271L2.19507 25.8241C1.89203 27.4927 1.74051 29.1924 1.74051 30.8921C1.74051 34.8588 2.51947 38.7031 4.0366 42.324C5.50321 45.8555 7.60892 49.0024 10.3188 51.6734C12.9995 54.3949 16.1367 56.489 19.6274 57.9964C23.2386 59.5543 27.0848 60.3235 31.0398 60.3235C32.7493 60.3235 34.4898 60.172 36.1584 59.8573L35.8457 59.7058L36.4731 59.8165L36.1196 59.8981C38.7206 61.3745 41.6344 62.1534 44.659 62.1534C49.2725 62.1534 53.6121 60.3624 56.9105 57.064C60.1779 53.8063 62 49.4259 62 44.7716C62 41.817 61.221 38.9129 59.7836 36.3138L59.7447 36.2341Z" fill="url(#paint0_linear_213_531)"/>
<defs>
<linearGradient id="paint0_linear_213_531" x1="30.9376" y1="59.5616" x2="30.9376" y2="3.43816" gradientUnits="userSpaceOnUse">
<stop stop-color="#ED3C29"/>
<stop offset="1" stop-color="#FA610A"/>
</linearGradient>
</defs>
</svg>
