<svg width="60" height="42" viewBox="0 0 60 42" fill="none" xmlns="http://www.w3.org/2000/svg">
<path d="M58.5723 6.97941C57.8684 4.48072 55.9199 2.52103 53.41 1.82829C48.7887 0.592833 30.2105 0.592833 30.2105 0.592833C30.2105 0.592833 11.6676 0.563196 6.99807 1.82829C4.50123 2.52288 2.54339 4.48072 1.84694 6.97941C0.970826 11.7156 0.535545 16.5093 0.55592 21.3251C0.546659 26.1095 0.980087 30.8957 1.84694 35.6023C2.54339 38.101 4.50123 40.0607 6.99807 40.7646C11.6194 42 30.2105 42 30.2105 42C30.2105 42 48.7424 42 53.41 40.7646C55.9199 40.0607 57.8684 38.1029 58.5723 35.6023C59.4225 30.8957 59.8374 26.1095 59.8077 21.3251C59.8374 16.5093 59.4317 11.7156 58.5723 6.97941ZM24.2759 30.1919V12.4195L39.7404 21.3251L24.2759 30.1919Z" fill="url(#paint0_linear_213_504)"/>
<defs>
<linearGradient id="paint0_linear_213_504" x1="30.1226" y1="40.2735" x2="30.1226" y2="2.88822" gradientUnits="userSpaceOnUse">
<stop stop-color="#ED3C29"/>
<stop offset="1" stop-color="#FA610A"/>
</linearGradient>
</defs>
</svg>
